<svg width="24" height="25" viewBox="0 0 24 25" fill="none" xmlns="http://www.w3.org/2000/svg">
<path d="M19.6583 24.4708C19.5028 24.4708 19.3569 24.4465 19.2208 24.3979C19.0847 24.3493 18.9583 24.2667 18.8417 24.15L12.8917 18.2C12.775 18.0833 12.6924 17.9569 12.6438 17.8208C12.5951 17.6847 12.5708 17.5389 12.5708 17.3833C12.5708 17.2278 12.5951 17.0819 12.6438 16.9458C12.6924 16.8097 12.775 16.6833 12.8917 16.5667L15.3708 14.0875C15.4875 13.9708 15.6139 13.8882 15.75 13.8396C15.8861 13.791 16.0319 13.7667 16.1875 13.7667C16.3431 13.7667 16.4889 13.791 16.625 13.8396C16.7611 13.8882 16.8875 13.9708 17.0042 14.0875L22.9542 20.0375C23.0708 20.1542 23.1535 20.2806 23.2021 20.4167C23.2507 20.5528 23.275 20.6986 23.275 20.8542C23.275 21.0097 23.2507 21.1556 23.2021 21.2917C23.1535 21.4278 23.0708 21.5542 22.9542 21.6708L20.475 24.15C20.3583 24.2667 20.2319 24.3493 20.0958 24.3979C19.9597 24.4465 19.8139 24.4708 19.6583 24.4708ZM19.6583 21.7L20.5042 20.8542L16.2167 16.5667L15.3708 17.4125L19.6583 21.7ZM3.64583 24.5C3.49028 24.5 3.33958 24.4708 3.19375 24.4125C3.04792 24.3542 2.91667 24.2667 2.8 24.15L0.35 21.7C0.233333 21.5833 0.145833 21.4521 0.0875 21.3062C0.0291667 21.1604 0 21.0097 0 20.8542C0 20.6986 0.0291667 20.5528 0.0875 20.4167C0.145833 20.2806 0.233333 20.1542 0.35 20.0375L6.53333 13.8542H9.0125L10.0042 12.8625L5.19167 8.05H3.52917L0 4.52083L3.29583 1.225L6.825 4.75417V6.41667L11.6375 11.2292L15.0208 7.84583L13.7667 6.59167L15.4 4.95833H12.1042L11.2875 4.14167L15.4292 0L16.2458 0.816667V4.1125L17.8792 2.47917L22.0208 6.62083C22.3514 6.95139 22.6042 7.32569 22.7792 7.74375C22.9542 8.16181 23.0417 8.60417 23.0417 9.07083C23.0417 9.5375 22.9542 9.98472 22.7792 10.4125C22.6042 10.8403 22.3514 11.2194 22.0208 11.55L19.5417 9.07083L17.9083 10.7042L16.6833 9.47917L10.6458 15.5167V17.9667L4.4625 24.15C4.34583 24.2667 4.21944 24.3542 4.08333 24.4125C3.94722 24.4708 3.80139 24.5 3.64583 24.5ZM3.64583 21.7L8.60417 16.7417V15.8958H7.75833L2.8 20.8542L3.64583 21.7ZM3.64583 21.7L2.8 20.8542L3.2375 21.2625L3.64583 21.7Z" fill="#C8C6C8"/>
</svg>
