<?xml version="1.0" encoding="UTF-8"?>
<svg width="1200pt" height="1200pt" version="1.1" viewBox="0 0 1200 1200" xmlns="http://www.w3.org/2000/svg">
 <path d="m56.879 175.32h1086.2c22.199 0 40.441 18.121 40.441 40.441v768.48c0 22.32-18.238 40.441-40.441 40.441h-1086.2c-22.199 0-40.441-18.121-40.441-40.441v-768.48c0-22.32 18.238-40.441 40.441-40.441zm233.28 207.84c59.398 0 107.64 48.121 107.64 107.52 0 59.398-48.238 107.64-107.64 107.64-59.398 0-107.52-48.238-107.52-107.64 0-59.398 48.121-107.52 107.52-107.52zm-180.12-114.36h979.92v545.76c-195.36-34.078-298.08-308.64-420.72-308.64-130.68 0-304.08 308.64-397.56 308.64-79.441 0-87-81.719-161.64-118.68v-427.08z" fill-rule="evenodd"/>
</svg>
