<svg width="23" height="23" viewBox="0 0 23 23" fill="none" xmlns="http://www.w3.org/2000/svg">
<path d="M1.575 20.65C1.18611 20.8056 0.826389 20.7618 0.495833 20.5187C0.165278 20.2757 0 19.95 0 19.5417V3.20833C0 2.95556 0.0729167 2.73194 0.21875 2.5375C0.364583 2.34306 0.563889 2.19722 0.816667 2.1L7 0L14 2.45L19.425 0.35C19.8139 0.194444 20.1736 0.238194 20.5042 0.48125C20.8347 0.724306 21 1.05 21 1.45833V11.2875C20.7083 10.8403 20.3632 10.4319 19.9646 10.0625C19.566 9.69306 19.1333 9.37222 18.6667 9.1V3.15L15.1667 4.49167V8.16667C14.7583 8.16667 14.3597 8.20069 13.9708 8.26875C13.5819 8.33681 13.2028 8.43889 12.8333 8.575V4.49167L8.16667 2.85833V18.1125L1.575 20.65ZM2.33333 17.85L5.83333 16.5083V2.85833L2.33333 4.025V17.85ZM15.1667 17.5C15.8278 17.5 16.3771 17.3056 16.8146 16.9167C17.2521 16.5278 17.4806 15.9444 17.5 15.1667C17.5194 14.5056 17.3007 13.9514 16.8438 13.5042C16.3868 13.0569 15.8278 12.8333 15.1667 12.8333C14.5056 12.8333 13.9514 13.0569 13.5042 13.5042C13.0569 13.9514 12.8333 14.5056 12.8333 15.1667C12.8333 15.8278 13.0569 16.3819 13.5042 16.8292C13.9514 17.2764 14.5056 17.5 15.1667 17.5ZM15.1667 19.8333C13.8833 19.8333 12.7847 19.3764 11.8708 18.4625C10.9569 17.5486 10.5 16.45 10.5 15.1667C10.5 13.8833 10.9569 12.7847 11.8708 11.8708C12.7847 10.9569 13.8833 10.5 15.1667 10.5C16.45 10.5 17.5486 10.9569 18.4625 11.8708C19.3764 12.7847 19.8333 13.8833 19.8333 15.1667C19.8333 15.6139 19.7799 16.0368 19.6729 16.4354C19.566 16.834 19.4056 17.2083 19.1917 17.5583L22.1667 20.5333L20.5333 22.1667L17.5583 19.1917C17.2083 19.4056 16.834 19.566 16.4354 19.6729C16.0368 19.7799 15.6139 19.8333 15.1667 19.8333Z" fill="#C8C6C8"/>
</svg>
