<svg width="17" height="15" viewBox="0 0 17 15" fill="none" xmlns="http://www.w3.org/2000/svg">
<path d="M15.8333 6.66667C15.5972 6.66667 15.3993 6.58681 15.2396 6.42708C15.0799 6.26736 15 6.06944 15 5.83333C15 5.59722 15.0799 5.39931 15.2396 5.23958C15.3993 5.07986 15.5972 5 15.8333 5C16.0694 5 16.2674 5.07986 16.4271 5.23958C16.5868 5.39931 16.6667 5.59722 16.6667 5.83333C16.6667 6.06944 16.5868 6.26736 16.4271 6.42708C16.2674 6.58681 16.0694 6.66667 15.8333 6.66667ZM15 4.16667V0H16.6667V4.16667H15ZM6.66667 7.5C5.75 7.5 4.96528 7.17361 4.3125 6.52083C3.65972 5.86806 3.33333 5.08333 3.33333 4.16667C3.33333 3.25 3.65972 2.46528 4.3125 1.8125C4.96528 1.15972 5.75 0.833333 6.66667 0.833333C7.58333 0.833333 8.36806 1.15972 9.02083 1.8125C9.67361 2.46528 10 3.25 10 4.16667C10 5.08333 9.67361 5.86806 9.02083 6.52083C8.36806 7.17361 7.58333 7.5 6.66667 7.5ZM0 14.1667V11.8333C0 11.3611 0.121528 10.9271 0.364583 10.5312C0.607639 10.1354 0.930556 9.83333 1.33333 9.625C2.19444 9.19444 3.06944 8.87153 3.95833 8.65625C4.84722 8.44097 5.75 8.33333 6.66667 8.33333C7.58333 8.33333 8.48611 8.44097 9.375 8.65625C10.2639 8.87153 11.1389 9.19444 12 9.625C12.4028 9.83333 12.7257 10.1354 12.9688 10.5312C13.2118 10.9271 13.3333 11.3611 13.3333 11.8333V14.1667H0ZM1.66667 12.5H11.6667V11.8333C11.6667 11.6806 11.6285 11.5417 11.5521 11.4167C11.4757 11.2917 11.375 11.1944 11.25 11.125C10.5 10.75 9.74306 10.4688 8.97917 10.2813C8.21528 10.0938 7.44444 10 6.66667 10C5.88889 10 5.11806 10.0938 4.35417 10.2813C3.59028 10.4688 2.83333 10.75 2.08333 11.125C1.95833 11.1944 1.85764 11.2917 1.78125 11.4167C1.70486 11.5417 1.66667 11.6806 1.66667 11.8333V12.5ZM6.66667 5.83333C7.125 5.83333 7.51736 5.67014 7.84375 5.34375C8.17014 5.01736 8.33333 4.625 8.33333 4.16667C8.33333 3.70833 8.17014 3.31597 7.84375 2.98958C7.51736 2.66319 7.125 2.5 6.66667 2.5C6.20833 2.5 5.81597 2.66319 5.48958 2.98958C5.16319 3.31597 5 3.70833 5 4.16667C5 4.625 5.16319 5.01736 5.48958 5.34375C5.81597 5.67014 6.20833 5.83333 6.66667 5.83333Z" fill="#4B444D"/>
</svg>
