<?xml version="1.0" encoding="UTF-8" standalone="no"?><!DOCTYPE svg PUBLIC "-//W3C//DTD SVG 1.1//EN" "http://www.w3.org/Graphics/SVG/1.1/DTD/svg11.dtd"><svg width="100%" height="100%" viewBox="0 0 5000 5000" version="1.1" xmlns="http://www.w3.org/2000/svg" xmlns:xlink="http://www.w3.org/1999/xlink" xml:space="preserve" xmlns:serif="http://www.serif.com/" style="fill-rule:evenodd;clip-rule:evenodd;stroke-linejoin:round;stroke-miterlimit:2;"><path d="M2271.29,550.417l-0,-385.546c-0,-63.475 51.366,-114.842 114.841,-114.842c25.782,0 49.609,8.594 68.946,23.047l1657.04,1006.46c53.908,32.617 71.287,103.125 38.477,156.838c-10.157,16.992 -24.219,30.273 -40.04,39.453l-1665.04,1011.17c-53.909,32.617 -124.413,15.429 -157.034,-38.477c-11.328,-18.555 -16.406,-39.063 -16.406,-59.179l-0.586,-0l0,-313.284c-734.958,-101.954 -1144.33,742.751 -1145.5,745.084c-28.125,56.641 -96.679,80.079 -153.516,51.954c-34.18,-16.992 -56.25,-48.438 -62.305,-83.4c-210.35,-887.5 34.766,-1394.75 396.484,-1684.54c310.35,-248.633 703.708,-329.687 964.666,-355.079l-0.028,0.348Zm457.416,3899.42l0,385.546c0,63.475 -51.366,114.842 -114.841,114.842c-25.782,-0 -49.609,-8.594 -68.946,-22.852l-1657.04,-1006.46c-53.908,-32.617 -71.287,-103.125 -38.477,-156.838c10.157,-16.992 24.219,-30.273 40.04,-39.453l1665.04,-1011.17c53.909,-32.617 124.413,-15.429 157.034,38.477c11.328,18.555 16.406,39.062 16.406,59.179l0.586,0l-0,313.283c734.958,101.955 1144.33,-742.75 1145.5,-745.083c28.125,-56.642 96.679,-79.883 153.517,-51.954c34.179,16.797 56.054,48.437 62.304,83.204c210.35,887.5 -34.766,1394.75 -396.484,1684.54c-310.35,248.633 -703.708,329.491 -964.666,354.883l0.028,-0.151Z" style="fill:#c8c6c8;fill-rule:nonzero;"/></svg>